# xmcd
#
# Track frame offsets:
#	150
#	24462
#	49730
#	74540
#	94215
#	108992
#	131700
#	154260
#	174075
#	195837
#
# Disc length: 2960 seconds
#
# Revision: 1
# Processed by: cddbd v1.5.1PL0 Copyright (c) Steve Scherf et al.
# Submitted via: CDex 1.50Beta5
#
DISCID=7e0b8e0a
DTITLE=CONFUSION - RUNNER’S HIGH
DYEAR=1996
DGENRE=Rock
TTITLE0=RUNNIN’AWAY
TTITLE1=MONSTER T.V.,THE
TTITLE2=FIRE
TTITLE3=UV=RR
TTITLE4=COWGIRL
TTITLE5=SILEN SONG
TTITLE6=1989
TTITLE7=BANG JUMP
TTITLE8=TAKIN RIDER
TTITLE9=IF…
EXTD=
EXTT0=
EXTT1=
EXTT2=
EXTT3=
EXTT4=
EXTT5=
EXTT6=
EXTT7=
EXTT8=
EXTT9=
PLAYORDER=
